<svg width="32" height="32" viewBox="0 0 32 32" fill="none" xmlns="http://www.w3.org/2000/svg">
<rect width="32" height="32" rx="16" fill="#FFA52F"/>
<path d="M19.4531 16.2812C19.4531 17.2031 19.3802 18.0286 19.2344 18.7578C19.0938 19.4818 18.8698 20.0964 18.5625 20.6016C18.2552 21.1068 17.8542 21.4922 17.3594 21.7578C16.8646 22.0234 16.2656 22.1562 15.5625 22.1562C14.6823 22.1562 13.9557 21.9245 13.3828 21.4609C12.8099 20.9922 12.3854 20.3203 12.1094 19.4453C11.8333 18.5651 11.6953 17.5104 11.6953 16.2812C11.6953 15.0521 11.8203 14 12.0703 13.125C12.3255 12.2448 12.737 11.5703 13.3047 11.1016C13.8724 10.6328 14.625 10.3984 15.5625 10.3984C16.4479 10.3984 17.1771 10.6328 17.75 11.1016C18.3281 11.5651 18.7552 12.237 19.0312 13.1172C19.3125 13.9922 19.4531 15.0469 19.4531 16.2812ZM13.5469 16.2812C13.5469 17.2448 13.6094 18.0495 13.7344 18.6953C13.8646 19.3411 14.0781 19.8255 14.375 20.1484C14.6719 20.4661 15.0677 20.625 15.5625 20.625C16.0573 20.625 16.4531 20.4661 16.75 20.1484C17.0469 19.8307 17.2604 19.349 17.3906 18.7031C17.526 18.0573 17.5938 17.25 17.5938 16.2812C17.5938 15.3229 17.5286 14.5208 17.3984 13.875C17.2682 13.2292 17.0547 12.7448 16.7578 12.4219C16.4609 12.0938 16.0625 11.9297 15.5625 11.9297C15.0625 11.9297 14.6641 12.0938 14.3672 12.4219C14.0755 12.7448 13.8646 13.2292 13.7344 13.875C13.6094 14.5208 13.5469 15.3229 13.5469 16.2812Z" fill="#232321"/>
</svg>
